<svg width="36" height="36" viewBox="0 0 36 36" fill="none" xmlns="http://www.w3.org/2000/svg">
    <path d="M20.8402 30.1058C20.8402 30.7338 20.5906 31.3361 20.1463 31.7802C19.702 32.2243 19.0995 32.4738 18.4712 32.4738H17.2867C16.6584 32.4738 16.0558 32.2243 15.6116 31.7802C15.1673 31.3361 14.9177 30.7338 14.9177 30.1058H16.1022C16.1022 30.4198 16.227 30.7209 16.4491 30.943C16.6713 31.165 16.9725 31.2898 17.2867 31.2898H18.4712C18.7853 31.2898 19.0866 31.165 19.3088 30.943C19.5309 30.7209 19.6557 30.4198 19.6557 30.1058H20.8402ZM22.0247 26.5537C22.0247 27.1818 21.7751 27.7841 21.3308 28.2282C20.8865 28.6723 20.284 28.9217 19.6557 28.9217H16.1022C15.4739 28.9217 14.8713 28.6723 14.4271 28.2282C13.9828 27.7841 13.7332 27.1818 13.7332 26.5537V24.1857C11.6011 22.7886 10.1797 20.3969 10.1797 17.6736C10.1797 15.6325 10.9909 13.675 12.4347 12.2317C13.8786 10.7884 15.837 9.97754 17.8789 9.97754C19.9209 9.97754 21.8792 10.7884 23.3231 12.2317C24.767 13.675 25.5782 15.6325 25.5782 17.6736C25.5782 20.3969 24.1568 22.7886 22.0247 24.1857V26.5537ZM14.9177 26.5537C14.9177 26.8677 15.0425 27.1689 15.2646 27.3909C15.4868 27.613 15.788 27.7377 16.1022 27.7377H19.6557C19.9698 27.7377 20.2711 27.613 20.4933 27.3909C20.7154 27.1689 20.8402 26.8677 20.8402 26.5537V23.4753C22.9486 22.4097 24.3937 20.2074 24.3937 17.6736C24.3937 15.9465 23.7073 14.2901 22.4856 13.0689C21.2638 11.8476 19.6068 11.1616 17.8789 11.1616C16.1511 11.1616 14.4941 11.8476 13.2723 13.0689C12.0506 14.2901 11.3642 15.9465 11.3642 17.6736C11.3642 20.2074 12.8093 22.4097 14.9177 23.4753V26.5537Z" fill="#FBE62C"/>
    <path d="M22.2102 17.3713L19.5048 14.6692L16.9477 17.2233L14.4037 19.7643L14.7222 20.0827L16.9477 17.8572V21.406H17.4578V17.3713L19.5048 15.3243L21.5519 17.3713L20.8255 18.0978L21.154 18.4263L22.2102 17.3713Z" fill="#FBE62C"/>
    <path d="M16.9333 3V7.2406H19.0667V3H16.9333ZM9.1552 10.7306L5.9552 7.55017L4.4448 9.05134L7.6448 12.2318L9.1552 10.7306ZM28.3552 12.2318L31.5552 9.05134L30.0448 7.55017L26.8448 10.7306L28.3552 12.2318ZM2 19.9624H6.26667V17.8421H2V19.9624ZM29.7333 19.9624H34V17.8421H29.7333V19.9624Z" fill="#FBE62C"/>
</svg>
