<svg width="54" height="54" viewBox="0 0 54 54" fill="none" xmlns="http://www.w3.org/2000/svg">
    <path d="M31.2603 45.1586C31.2603 46.1007 30.8859 47.0042 30.2195 47.6703C29.5531 48.3364 28.6492 48.7107 27.7068 48.7107H25.93C24.9876 48.7107 24.0837 48.3364 23.4173 47.6703C22.7509 47.0042 22.3765 46.1007 22.3765 45.1586H24.1533C24.1533 45.6297 24.3405 46.0814 24.6737 46.4145C25.0069 46.7475 25.4588 46.9347 25.93 46.9347H27.7068C28.178 46.9347 28.6299 46.7475 28.9631 46.4145C29.2963 46.0814 29.4835 45.6297 29.4835 45.1586H31.2603ZM33.037 39.8306C33.037 40.7726 32.6626 41.6761 31.9962 42.3422C31.3298 43.0084 30.426 43.3826 29.4835 43.3826H24.1533C23.2108 43.3826 22.307 43.0084 21.6406 42.3422C20.9742 41.6761 20.5998 40.7726 20.5998 39.8306V36.2785C17.4016 34.1828 15.2695 30.5953 15.2695 26.5104C15.2695 23.4487 16.4863 20.5124 18.6521 18.3475C20.818 16.1826 23.7555 14.9663 26.8184 14.9663C29.8814 14.9663 32.8189 16.1826 34.9847 18.3475C37.1505 20.5124 38.3673 23.4487 38.3673 26.5104C38.3673 30.5953 36.2352 34.1828 33.037 36.2785V39.8306ZM22.3765 39.8306C22.3765 40.3016 22.5637 40.7533 22.8969 41.0864C23.2301 41.4195 23.6821 41.6066 24.1533 41.6066H29.4835C29.9548 41.6066 30.4067 41.4195 30.7399 41.0864C31.0731 40.7533 31.2603 40.3016 31.2603 39.8306V35.2129C34.4229 33.6145 36.5905 30.3111 36.5905 26.5104C36.5905 23.9198 35.561 21.4352 33.7283 19.6033C31.8957 17.7715 29.4101 16.7423 26.8184 16.7423C24.2267 16.7423 21.7411 17.7715 19.9085 19.6033C18.0758 21.4352 17.0463 23.9198 17.0463 26.5104C17.0463 30.3111 19.2139 33.6145 22.3765 35.2129V39.8306Z" fill="currentColor"/>
    <path d="M33.3192 26.0571L29.2612 22.0039L25.4255 25.835L21.6095 29.6465L22.0872 30.1242L25.4255 26.7859V32.1092H26.1906V26.0571L29.2612 22.9865L32.3318 26.0571L31.2421 27.1468L31.7349 27.6395L33.3192 26.0571Z" fill="currentColor"/>
    <path d="M25.4 4.5V10.8609H28.6V4.5H25.4ZM13.7328 16.0959L8.9328 11.3252L6.6672 13.577L11.4672 18.3477L13.7328 16.0959ZM42.5328 18.3477L47.3328 13.577L45.0672 11.3252L40.2672 16.0959L42.5328 18.3477ZM3 29.9436H9.4V26.7632H3V29.9436ZM44.6 29.9436H51V26.7632H44.6V29.9436Z" fill="currentColor"/>
</svg>
